<?xml version="1.0" standalone="no"?>
<!DOCTYPE svg PUBLIC "-//W3C//DTD SVG 20010904//EN"
 "http://www.w3.org/TR/2001/REC-SVG-20010904/DTD/svg10.dtd">
<svg version="1.0" xmlns="http://www.w3.org/2000/svg"
 width="700.000000pt" height="700.000000pt" viewBox="0 0 700.000000 700.000000"
 preserveAspectRatio="xMidYMid meet">
<metadata>
Created by potrace 1.11, written by Peter Selinger 2001-2013
</metadata>
<g transform="translate(0.000000,700.000000) scale(0.100000,-0.100000)"
fill="#000000" stroke="none">
<path d="M1210 6985 c-593 -82 -1050 -510 -1182 -1108 l-23 -102 0 -2270 c0
-2149 1 -2275 18 -2359 42 -205 136 -423 247 -571 236 -315 562 -507 950 -560
157 -22 4403 -22 4560 0 373 51 696 235 930 531 148 188 255 460 280 711 8 76
10 770 8 2318 l-4 2210 -22 97 c-131 569 -546 979 -1112 1095 -79 16 -239 17
-2320 19 -1797 2 -2254 0 -2330 -11z m4222 -2070 c229 -30 442 -111 565 -214
76 -63 145 -165 179 -266 37 -107 46 -308 19 -418 -22 -93 -65 -187 -115 -253
-44 -58 -154 -145 -217 -171 -43 -18 -56 -33 -29 -33 8 0 56 -21 105 -46 168
-86 290 -227 347 -400 27 -83 29 -100 29 -244 0 -118 -4 -170 -18 -220 -87
-318 -358 -505 -814 -565 -216 -28 -638 -18 -858 21 -202 36 -298 84 -336 168
-18 39 -19 95 -19 1244 0 1333 -4 1245 64 1297 55 42 265 91 461 108 124 11
533 6 637 -8z m-4166 -50 c29 -14 67 -42 85 -63 54 -61 230 -445 565 -1232 95
-223 176 -405 180 -405 5 0 29 50 55 110 390 919 681 1575 703 1587 34 19 182
40 243 35 117 -11 184 -57 208 -142 47 -165 112 -879 200 -2220 30 -443 35
-402 -59 -430 -118 -35 -231 -7 -269 68 -23 45 -32 182 -103 1467 -25 470 -48
857 -50 859 -7 7 -9 2 -96 -209 -46 -113 -208 -487 -358 -832 l-274 -627 -51
-23 c-112 -50 -290 -31 -338 35 -64 88 -399 840 -652 1465 -43 105 -81 192
-85 192 -8 0 -9 -22 -36 -535 -8 -165 -26 -475 -39 -690 -14 -214 -34 -550
-45 -745 -12 -195 -23 -369 -26 -386 -4 -28 -9 -32 -55 -42 -126 -29 -242 -4
-275 60 -15 29 -16 56 -11 238 5 182 49 919 77 1295 30 397 81 1036 86 1076 5
43 9 49 53 73 116 62 265 71 367 21z"/>
<path d="M4955 4624 c-67 -4 -232 -22 -282 -31 l-33 -5 0 -439 0 -439 365 0
c404 0 467 7 581 61 178 84 268 261 243 474 -16 128 -91 231 -215 293 -69 35
-110 48 -219 68 -81 14 -329 25 -440 18z"/>
<path d="M4640 2912 l0 -490 63 -11 c225 -39 583 -47 745 -18 229 42 371 124
440 254 43 82 56 152 50 277 -4 96 -8 112 -41 178 -65 133 -180 220 -352 269
-76 22 -99 23 -492 27 l-413 3 0 -489z"/>
</g>
</svg>
